<?xml version="1.0" standalone="no"?>
<!DOCTYPE svg PUBLIC "-//W3C//DTD SVG 20010904//EN"
 "http://www.w3.org/TR/2001/REC-SVG-20010904/DTD/svg10.dtd">
<svg version="1.0" xmlns="http://www.w3.org/2000/svg"
 width="100.000000pt" height="100.000000pt" viewBox="0 0 100.000000 100.000000"
 preserveAspectRatio="xMidYMid meet">
<metadata>
Created by potrace 1.14, written by Peter Selinger 2001-2017
</metadata>
<g transform="translate(0.000000,100.000000) scale(0.100000,-0.100000)"
fill="#000000" stroke="none">
<path d="M545 875 c-27 -7 -77 -19 -110 -28 -170 -41 -332 -90 -345 -103 -33
-33 -13 -129 88 -414 11 -30 27 -81 37 -114 18 -61 59 -113 79 -98 6 5 29 14
51 20 108 31 147 43 237 75 53 19 116 38 140 41 57 9 77 21 60 38 -21 21 -12
95 10 81 14 -8 8 15 -47 176 -38 112 -139 344 -148 340 -1 -1 -24 -7 -52 -14z"/>
</g>
</svg>
